<svg xmlns="http://www.w3.org/2000/svg" width="1031" height="592" viewBox="0 0 1031 592" font-family="'SF Mono', Menlo, Consolas, 'DejaVu Sans Mono', 'Liberation Mono', monospace" font-size="14">
<rect width="1031" height="592" rx="10" fill="#10141b"/>
<rect width="1031" height="34" rx="10" fill="#1a1f29"/><rect y="24" width="1031" height="10" fill="#1a1f29"/>
<circle cx="20" cy="17" r="6" fill="#ff5f57"/><circle cx="40" cy="17" r="6" fill="#febc2e"/><circle cx="60" cy="17" r="6" fill="#28c840"/><text x="515" y="22" fill="#8b93a3" text-anchor="middle" font-size="13">hostdiff</text>
<text x="18.00" y="56.32" fill="#f9e2af" textLength="8.43" lengthAdjust="spacingAndGlyphs" xml:space="preserve">◀</text><text x="26.43" y="56.32" fill="#f9e2af" xml:space="preserve"> laptop (laptop, macOS/arm64)</text><text x="296.19" y="56.32" fill="#89dceb" textLength="8.43" lengthAdjust="spacingAndGlyphs" xml:space="preserve">▶</text><text x="304.62" y="56.32" fill="#89dceb" xml:space="preserve"> workstation (workstation, macOS/arm64)</text>
<text x="18.00" y="74.32" fill="#7f8796" xml:space="preserve">11 differences </text><text x="144.45" y="74.32" fill="#7f8796" textLength="8.43" lengthAdjust="spacingAndGlyphs" xml:space="preserve">·</text><text x="152.88" y="74.32" fill="#7f8796" xml:space="preserve"> 2 selected </text><text x="254.04" y="74.32" fill="#7f8796" textLength="8.43" lengthAdjust="spacingAndGlyphs" xml:space="preserve">·</text><text x="262.47" y="74.32" fill="#7f8796" xml:space="preserve"> enter: what to do with them</text>
<text x="18.00" y="92.32" fill="#d5dae3" font-weight="700" xml:space="preserve">Homebrew                    9</text><text x="287.76" y="92.32" fill="#d5dae3" font-weight="700" text-decoration="underline" xml:space="preserve">2</text><text x="304.62" y="92.32" fill="#d5dae3" font-weight="700" text-decoration="underline" xml:space="preserve">selected</text><text x="380.49" y="92.32" fill="#d5dae3" font-weight="700" text-decoration="underline" xml:space="preserve">items</text>
<text x="18.00" y="110.32" fill="#d5dae3" xml:space="preserve">  cask                      3 </text>
<rect x="287.76" y="115.00" width="252.90" height="18" fill="#d5dae3"/><text x="18.00" y="128.32" fill="#d5dae3" xml:space="preserve">  formula                   6 </text><text x="287.76" y="128.32" fill="#10141b" textLength="8.43" lengthAdjust="spacingAndGlyphs" xml:space="preserve">›</text><text x="304.62" y="128.32" fill="#10141b" textLength="8.43" lengthAdjust="spacingAndGlyphs" xml:space="preserve">✚</text><text x="313.05" y="128.32" fill="#10141b" xml:space="preserve"> Install on workstation (2)</text>
<text x="18.00" y="146.32" fill="#d5dae3" xml:space="preserve">Fonts                       2 </text><text x="304.62" y="146.32" fill="#f7768e" textLength="8.43" lengthAdjust="spacingAndGlyphs" xml:space="preserve">✗</text><text x="313.05" y="146.32" fill="#d5dae3" xml:space="preserve"> Remove from laptop (2)</text>

<text x="287.76" y="182.32" fill="#7f8796" textLength="8.43" lengthAdjust="spacingAndGlyphs" xml:space="preserve">↑</text><text x="296.19" y="182.32" fill="#7f8796" textLength="8.43" lengthAdjust="spacingAndGlyphs" xml:space="preserve">↓</text><text x="304.62" y="182.32" fill="#7f8796" xml:space="preserve"> choose </text><text x="372.06" y="182.32" fill="#7f8796" textLength="8.43" lengthAdjust="spacingAndGlyphs" xml:space="preserve">·</text><text x="380.49" y="182.32" fill="#7f8796" xml:space="preserve"> enter continue </text><text x="515.37" y="182.32" fill="#7f8796" textLength="8.43" lengthAdjust="spacingAndGlyphs" xml:space="preserve">·</text><text x="523.80" y="182.32" fill="#7f8796" xml:space="preserve"> esc back</text>




















<text x="18.00" y="560.32" fill="#7f8796" xml:space="preserve">space select </text><text x="127.59" y="560.32" fill="#7f8796" textLength="8.43" lengthAdjust="spacingAndGlyphs" xml:space="preserve">·</text><text x="136.02" y="560.32" fill="#7f8796" xml:space="preserve"> A all here </text><text x="237.18" y="560.32" fill="#7f8796" textLength="8.43" lengthAdjust="spacingAndGlyphs" xml:space="preserve">·</text><text x="245.61" y="560.32" fill="#7f8796" xml:space="preserve"> ctrl+a everything </text><text x="405.78" y="560.32" fill="#7f8796" textLength="8.43" lengthAdjust="spacingAndGlyphs" xml:space="preserve">·</text><text x="414.21" y="560.32" fill="#7f8796" xml:space="preserve"> enter actions </text><text x="540.66" y="560.32" fill="#7f8796" textLength="8.43" lengthAdjust="spacingAndGlyphs" xml:space="preserve">·</text><text x="549.09" y="560.32" fill="#7f8796" xml:space="preserve"> C clone </text><text x="624.96" y="560.32" fill="#7f8796" textLength="8.43" lengthAdjust="spacingAndGlyphs" xml:space="preserve">·</text><text x="633.39" y="560.32" fill="#7f8796" xml:space="preserve"> v details </text><text x="726.12" y="560.32" fill="#7f8796" textLength="8.43" lengthAdjust="spacingAndGlyphs" xml:space="preserve">·</text><text x="734.55" y="560.32" fill="#7f8796" xml:space="preserve"> o last run </text><text x="835.71" y="560.32" fill="#7f8796" textLength="8.43" lengthAdjust="spacingAndGlyphs" xml:space="preserve">·</text><text x="844.14" y="560.32" fill="#7f8796" xml:space="preserve"> / filter </text><text x="928.44" y="560.32" fill="#7f8796" textLength="8.43" lengthAdjust="spacingAndGlyphs" xml:space="preserve">·</text><text x="936.87" y="560.32" fill="#7f8796" xml:space="preserve"> a same </text><text x="1004.31" y="560.32" fill="#7f8796" textLength="8.43" lengthAdjust="spacingAndGlyphs" xml:space="preserve">…</text>
<path d="M275.11 79.00V97.00M275.11 97.00V115.00M275.11 115.00V133.00M275.11 133.00V151.00M275.11 151.00V169.00M275.11 169.00V187.00M275.11 187.00V205.00M275.11 205.00V223.00M275.11 223.00V241.00M275.11 241.00V259.00M275.11 259.00V277.00M275.11 277.00V295.00M275.11 295.00V313.00M275.11 313.00V331.00M275.11 331.00V349.00M275.11 349.00V367.00M275.11 367.00V385.00M275.11 385.00V403.00M275.11 403.00V421.00M275.11 421.00V439.00M275.11 439.00V457.00M275.11 457.00V475.00M275.11 475.00V493.00M275.11 493.00V511.00M275.11 511.00V529.00M275.11 529.00V547.00" stroke="#d5dae3" stroke-width="1.3" fill="none"/>
</svg>
